# xmcd
#
# Track frame offsets: 
#        150
#        11857
#        24689
#        36336
#        49203
#        60920
#        71247
#        81639
#        89924
#        101806
#        111410
#        122968
#        133360
#        144612
#        156409
#        167807
#        178364
#        189463
#
# Disc length: 2670 seconds
#
# Revision: 3
# Processed by: cddbd v1.5.2PL0 Copyright (c) Steve Scherf et al.
# Submitted via: ExactAudioCopy v1.0b3
#
DISCID=250a6c12
DTITLE=Various Artist - Country Love
DYEAR=1900
DGENRE=Country
TTITLE0=Willie Nelson - Is There Something On Your Mind
TTITLE1=Lynn Anderson - Rose Garden
TTITLE2=Barbara Fairchild - Cheatin' Is
TTITLE3=Billie Jo Spears - Dallas
TTITLE4=Patsy Cline - I've LOVED and Lost Again
TTITLE5=Frankie Laine - I Believe
TTITLE6=Willie Nelson - Broken Promises
TTITLE7=Slim Whitman - Have You Ever Been Lonely
TTITLE8=Dolly Parton - Making Believe
TTITLE9=Charley Pride - Kiss An Angel Good Morning
TTITLE10=Patsy Cline - Let The Teardrops Fall
TTITLE11=Billie Jo Spears - It Makes No Difference Now
TTITLE12=Anne Murray - The Last Thing On My Mind
TTITLE13=Roy Drusky - Three Hearts In A Tangle
TTITLE14=Frankie Laine - LOVE Is A Golden Ring
TTITLE15=Ferlin Huskey - Wings Of A Dove
TTITLE16=Frankie Laine - Answer Me
TTITLE17=Billie Jo Spears - I'm So Lonesome I Could Cry
EXTD=
EXTT0=INTERPRET\nWILLIE NELSON
EXTT1=INTERPRET\nLYN ANDERSON
EXTT2=INTERPRET\nBARBARA FAIRCHILD
EXTT3=INTERPRET\nBILLIE JO SPEARS
EXTT4=INTERPRET\nPATSY CLINE
EXTT5=FRANKLIE LAINE
EXTT6=INTERPRET\nWILLIE NELSON
EXTT7=INTERPRET\nSLIM WITHMAN
EXTT8=INTERPRET\nDOLLY PARTON
EXTT9=INTERPRET\nCHARLEY PRIDE
EXTT10=PATSY CLINE
EXTT11=INTERPRET\nBILLIE JO SPEARS
EXTT12=INTERPRET\nANNE MURRAY
EXTT13=INTERPRET\nROY DRUSKY
EXTT14=INTERPRET\nFRANKIE LAIN
EXTT15=FERLIN HUSKY
EXTT16=INTERPRET\nFRANIE LAINE
EXTT17=INTERPRET\nBILLIE JO SPEARS
PLAYORDER=
